<svg xmlns="http://www.w3.org/2000/svg" width="1200" height="630" viewBox="0 0 1200 630" role="img" aria-labelledby="title desc">
  <title id="title">John Doe Portfolio Open Graph image</title>
  <desc id="desc">Gradient background with name and role for John Doe, full-stack developer.</desc>
  <defs>
    <linearGradient id="bg" x1="0%" y1="0%" x2="100%" y2="100%">
      <stop offset="0%" stop-color="#6366f1" />
      <stop offset="50%" stop-color="#8b5cf6" />
      <stop offset="100%" stop-color="#0ea5e9" />
    </linearGradient>
    <linearGradient id="accent" x1="0%" y1="0%" x2="100%" y2="0%">
      <stop offset="0%" stop-color="#f9fafb" stop-opacity="0.65" />
      <stop offset="100%" stop-color="#f1f5f9" stop-opacity="0.9" />
    </linearGradient>
  </defs>
  <rect width="1200" height="630" fill="#0f172a" />
  <rect width="1200" height="630" fill="url(#bg)" opacity="0.85" />
  <circle cx="1040" cy="140" r="180" fill="#0ea5e9" opacity="0.08" />
  <circle cx="180" cy="540" r="200" fill="#14b8a6" opacity="0.1" />
  <path d="M1200 360c-160 40-320 40-480 0s-320-40-480 0-320 40-480 0V630H1200Z" fill="#0f172a" opacity="0.3" />
  <g transform="translate(120 170)">
    <rect x="0" y="0" width="8" height="96" rx="4" fill="#f1f5f9" />
    <text x="40" y="60" font-family="'Geist', 'Segoe UI', sans-serif" font-size="54" font-weight="600" fill="#e2e8f0">
      John Doe
    </text>
    <text x="40" y="110" font-family="'Geist', 'Segoe UI', sans-serif" font-size="28" font-weight="400" fill="#cbd5f5">
      Full-Stack Developer · UI Engineer
    </text>
  </g>
  <g transform="translate(120 300)">
    <text x="0" y="0" font-family="'Geist', 'Segoe UI', sans-serif" font-size="22" fill="#e2e8f0" opacity="0.85">
      Building accessible, performant web experiences with TypeScript, React, and Next.js.
    </text>
    <rect x="0" y="40" width="360" height="64" rx="32" fill="url(#accent)" />
    <text x="40" y="83" font-family="'Geist', 'Segoe UI', sans-serif" font-size="26" font-weight="600" fill="#0f172a">
      portfolio.example.com
    </text>
  </g>
</svg>
